<svg width="16" height="16" viewBox="0 0 16 16" fill="none" xmlns="http://www.w3.org/2000/svg">
<path d="M6.07733 9.45795C3.708 9.76995 2 10.6399 2 11.6666C2 12.9553 4.686 13.9999 8 13.9999C11.314 13.9999 14 12.9553 14 11.6666C14 10.6399 12.292 9.76995 9.92267 9.45795" stroke="#E5C97E" stroke-linecap="round" stroke-linejoin="round"/>
<path fill-rule="evenodd" clip-rule="evenodd" d="M12 5.22192C12 3.07459 10.2093 1.33325 8 1.33325C5.79067 1.33325 4 3.07459 4 5.22192C4 8.13859 8 11.3333 8 11.3333C8 11.3333 12 8.13859 12 5.22192Z" stroke="#E5C97E" stroke-linecap="round" stroke-linejoin="round"/>
<path d="M8.94314 4.39046C9.46384 4.91116 9.46384 5.75538 8.94314 6.27608C8.42244 6.79678 7.57822 6.79678 7.05752 6.27608C6.53682 5.75538 6.53682 4.91116 7.05752 4.39046C7.57822 3.86976 8.42244 3.86976 8.94314 4.39046" stroke="#E5C97E" stroke-linecap="round" stroke-linejoin="round"/>
</svg>
