<svg width="16" height="16" viewBox="0 0 16 16" fill="none" xmlns="http://www.w3.org/2000/svg">
<path fill-rule="evenodd" clip-rule="evenodd" d="M9.73288 4.46669V4.46669C9.99954 4.73335 10.0662 5.06669 9.99954 5.33335L9.26621 9.20002C9.06621 10.1334 8.33288 10.8667 7.39954 11.0667L3.53288 11.8C3.19954 11.8667 2.86621 11.7334 2.66621 11.5334V11.5334C2.26621 11.1334 2.26621 10.5334 2.66621 10.1334L8.33288 4.46669C8.66621 4.06669 9.33288 4.06669 9.73288 4.46669V4.46669Z" stroke="#E5C97E" stroke-linecap="round" stroke-linejoin="round"/>
<path d="M5.99935 2.73337C5.98068 2.73337 5.96602 2.7187 5.96602 2.70003C5.96602 2.68137 5.98068 2.6667 5.99935 2.6667C6.01802 2.6667 6.03268 2.68137 6.03268 2.70003C6.03268 2.7187 6.01802 2.73337 5.99935 2.73337" stroke="#E5C97E" stroke-linecap="round" stroke-linejoin="round"/>
<path d="M1.99902 14H13.999" stroke="#E5C97E" stroke-linecap="round" stroke-linejoin="round"/>
<path d="M1.99935 4.66669V2.66669" stroke="#E5C97E" stroke-linecap="round" stroke-linejoin="round"/>
<path d="M3.99935 3.33335V2.66669" stroke="#E5C97E" stroke-linecap="round" stroke-linejoin="round"/>
<path d="M9.73236 4.46674L13.199 7.9334C13.7324 8.46674 13.7324 9.26674 13.199 9.80007L8.99902 14.0001" stroke="#E5C97E" stroke-linecap="round" stroke-linejoin="round"/>
<path d="M2.59961 11.6L5.06628 14" stroke="#E5C97E" stroke-linecap="round" stroke-linejoin="round"/>
</svg>
