<svg width="16" height="16" viewBox="0 0 16 16" fill="none" xmlns="http://www.w3.org/2000/svg">
<path fill-rule="evenodd" clip-rule="evenodd" d="M7.23776 8.76268C6.45776 7.98268 5.86976 7.10935 5.47909 6.22335C5.39642 6.03602 5.44509 5.81668 5.58976 5.67202L6.13576 5.12668C6.58309 4.67935 6.58309 4.04668 6.19242 3.65602L5.40976 2.87335C4.88909 2.35268 4.04509 2.35268 3.52442 2.87335L3.08976 3.30802C2.59576 3.80202 2.38976 4.51468 2.52309 5.22135C2.85242 6.96335 3.86442 8.87068 5.49709 10.5033C7.12976 12.136 9.03709 13.148 10.7791 13.4773C11.4858 13.6107 12.1984 13.4047 12.6924 12.9107L13.1264 12.4767C13.6471 11.956 13.6471 11.112 13.1264 10.5913L12.3444 9.80935C11.9538 9.41868 11.3204 9.41868 10.9304 9.80935L10.3284 10.412C10.1838 10.5567 9.96442 10.6053 9.77709 10.5227C8.89109 10.1313 8.01776 9.54268 7.23776 8.76268Z" stroke="#E5C97E" stroke-linecap="round" stroke-linejoin="round"/>
</svg>
